<svg width="16" height="16" viewBox="0 0 16 16" fill="none" xmlns="http://www.w3.org/2000/svg">
<path d="M13.13 11.0924C12.8496 11.7137 12.7156 11.9907 12.3542 12.5402C11.8509 13.3069 11.1407 14.2616 10.2606 14.2696C9.4786 14.277 9.27796 13.7611 8.21662 13.7668C7.15585 13.7725 6.93412 14.2787 6.15208 14.2713C5.272 14.2633 4.59997 13.4015 4.09552 12.6343C2.68762 10.4899 2.54056 7.97394 3.40924 6.63672C4.02655 5.68596 5.00068 5.13021 5.91667 5.13021C6.84919 5.13021 7.43515 5.6415 8.20636 5.6415C8.9542 5.6415 9.4102 5.12964 10.4881 5.12964C11.3032 5.12964 12.1661 5.5731 12.7817 6.33975C10.7662 7.44441 11.0934 10.3223 13.13 11.0924Z" stroke="#565D6D" stroke-width="1.368" stroke-miterlimit="10" stroke-linecap="round"/>
<path d="M9.7685 3.11299C10.139 2.63761 10.42 1.96672 10.318 1.28101C9.71264 1.32262 9.00584 1.70737 8.59259 2.20897C8.21753 2.6644 7.90802 3.33928 8.02829 3.99592C8.68835 4.01644 9.37178 3.622 9.7685 3.11299Z" fill="#565D6D"/>
</svg>
