<svg width="20" height="20" viewBox="0 0 20 20" fill="none" xmlns="http://www.w3.org/2000/svg">
<path d="M10.0001 4.27502C10.5882 4.27502 11.0651 3.7982 11.0651 3.21002C11.0651 2.62184 10.5882 2.14502 10.0001 2.14502C9.41188 2.14502 8.93506 2.62184 8.93506 3.21002C8.93506 3.7982 9.41188 4.27502 10.0001 4.27502Z" fill="#7D6600"/>
<path d="M16.7901 7.135C17.3783 7.135 17.8551 6.65819 17.8551 6.07C17.8551 5.48182 17.3783 5.005 16.7901 5.005C16.2019 5.005 15.7251 5.48182 15.7251 6.07C15.7251 6.65819 16.2019 7.135 16.7901 7.135Z" fill="#7D6600"/>
<path d="M3.21002 7.135C3.7982 7.135 4.27502 6.65819 4.27502 6.07C4.27502 5.48182 3.7982 5.005 3.21002 5.005C2.62184 5.005 2.14502 5.48182 2.14502 6.07C2.14502 6.65819 2.62184 7.135 3.21002 7.135Z" fill="#7D6600"/>
<path d="M10.0001 4.27502C10.5882 4.27502 11.0651 3.7982 11.0651 3.21002C11.0651 2.62184 10.5882 2.14502 10.0001 2.14502C9.41188 2.14502 8.93506 2.62184 8.93506 3.21002C8.93506 3.7982 9.41188 4.27502 10.0001 4.27502Z" stroke="#7D6600" stroke-width="1.704" stroke-miterlimit="10" stroke-linecap="square"/>
<path d="M9.68712 4.26367L7.84822 10.6963L3.99292 6.83387" stroke="#7D6600" stroke-width="1.704" stroke-miterlimit="10"/>
<path d="M3.5105 7.12305L5.70937 14.9771" stroke="#7D6600" stroke-width="1.704" stroke-miterlimit="10"/>
<path d="M16.0072 6.83387L12.1519 10.6963L10.313 4.26367" stroke="#7D6600" stroke-width="1.704" stroke-miterlimit="10"/>
<path d="M14.2905 14.9771L16.4894 7.12305" stroke="#7D6600" stroke-width="1.704" stroke-miterlimit="10"/>
<path d="M16.7901 7.135C17.3783 7.135 17.8551 6.65819 17.8551 6.07C17.8551 5.48182 17.3783 5.005 16.7901 5.005C16.2019 5.005 15.7251 5.48182 15.7251 6.07C15.7251 6.65819 16.2019 7.135 16.7901 7.135Z" stroke="#7D6600" stroke-width="1.704" stroke-miterlimit="10" stroke-linecap="square"/>
<path d="M3.21002 7.135C3.7982 7.135 4.27502 6.65819 4.27502 6.07C4.27502 5.48182 3.7982 5.005 3.21002 5.005C2.62184 5.005 2.14502 5.48182 2.14502 6.07C2.14502 6.65819 2.62184 7.135 3.21002 7.135Z" stroke="#7D6600" stroke-width="1.704" stroke-miterlimit="10" stroke-linecap="square"/>
<path d="M16.3901 15.01L3.61011 15.01L3.61011 17.85L16.3901 17.85V15.01Z" stroke="#7D6600" stroke-width="1.704" stroke-miterlimit="10" stroke-linecap="square"/>
</svg>
