<svg width="48" height="48" viewBox="0 0 48 48" fill="none" xmlns="http://www.w3.org/2000/svg">
<rect width="48" height="48" rx="4" fill="#F5F1FE"/>
<rect width="48" height="48" rx="4" stroke="#BDC1CA"/>
<path opacity="0.2" d="M35.4244 14.6907L31.5569 36.6607C31.509 36.9324 31.3552 37.174 31.1292 37.3322C30.9031 37.4904 30.6235 37.5524 30.3518 37.5044L13.4193 34.5144C12.8541 34.4147 12.4765 33.8759 12.5756 33.3106L16.4431 11.3406C16.491 11.0689 16.6449 10.8273 16.8709 10.6691C17.0969 10.5109 17.3765 10.4489 17.6482 10.4969L34.5807 13.4869C35.1459 13.5866 35.5235 14.1254 35.4244 14.6907Z" fill="#6F7787"/>
<path d="M34.7589 12.4625L17.8264 9.4725C16.6952 9.27345 15.6169 10.0288 15.4175 11.1599L11.55 33.1299C11.4544 33.6735 11.5788 34.2327 11.8958 34.6845C12.2128 35.1363 12.6963 35.4436 13.24 35.5388L30.1725 38.5288C30.7162 38.6247 31.2758 38.5005 31.7279 38.1835C32.18 37.8665 32.4875 37.3827 32.5827 36.8388L36.4502 14.8688C36.6475 13.7373 35.8903 12.6601 34.7589 12.4625ZM30.5313 36.48L13.5975 33.49L17.465 11.52L34.3975 14.51L30.5313 36.48ZM18.9717 14.9546C19.072 14.3893 19.6114 14.0122 20.1768 14.1122L30.9668 16.0167C31.4984 16.1098 31.8704 16.5941 31.8233 17.1318C31.7763 17.6694 31.3258 18.0817 30.7861 18.0811C30.7251 18.081 30.6642 18.0758 30.6041 18.0655L19.8141 16.1597C19.2488 16.0594 18.8717 15.52 18.9717 14.9546ZM18.2515 19.0522C18.2993 18.7805 18.4532 18.5389 18.6792 18.3807C18.9052 18.2225 19.1849 18.1605 19.4566 18.2085L30.2466 20.1143C30.7821 20.2039 31.1586 20.6904 31.111 21.2313C31.0633 21.7722 30.6075 22.1855 30.0646 22.18C30.0031 22.1801 29.9417 22.1745 29.8813 22.1631L19.0913 20.2586C18.5264 20.1571 18.1506 19.6172 18.2515 19.0522ZM17.53 23.1485C17.6321 22.5848 18.171 22.2099 18.7351 22.31L24.1275 23.2577C24.6588 23.3508 25.0308 23.8347 24.9841 24.3721C24.9374 24.9096 24.4875 25.3221 23.9481 25.3221C23.8871 25.3221 23.8262 25.3169 23.7661 25.3065L18.3711 24.3536C17.8063 24.2527 17.4299 23.7134 17.53 23.1485Z" fill="#6F7787"/>
</svg>
