<svg width="24" height="24" viewBox="0 0 24 24" fill="none" xmlns="http://www.w3.org/2000/svg">
<g clip-path="url(#clip0_2127_2221)">
<path d="M23.5 12C23.5 18.3512 18.3512 23.5 12 23.5C5.64881 23.5 0.5 18.3512 0.5 12C0.5 5.64881 5.64881 0.5 12 0.5C18.3512 0.5 23.5 5.64881 23.5 12Z" fill="#FFCC4D"/>
<path d="M12 20.3056C8.40367 20.3056 7.5942 18.0522 7.56161 17.9558C7.50587 17.7957 7.51598 17.6201 7.58972 17.4675C7.66347 17.3149 7.79481 17.1979 7.95485 17.1421C8.11489 17.0864 8.29052 17.0965 8.4431 17.1702C8.59569 17.244 8.71273 17.3753 8.76847 17.5354C8.79722 17.6108 9.37734 19.0278 12 19.0278C14.6373 19.0278 15.2085 17.5954 15.2321 17.5347C15.3554 17.2089 15.7196 17.0364 16.0473 17.154C16.3751 17.2715 16.5508 17.6261 16.4383 17.9558C16.4058 18.0522 15.5963 20.3056 12 20.3056ZM19.0239 5.61818C19.025 5.44963 18.9597 5.28743 18.8422 5.16659C18.7247 5.04575 18.5644 4.97595 18.3959 4.97226C18.3531 4.97162 17.3398 4.93648 16.285 3.88168C16.2257 3.82236 16.1553 3.77531 16.0778 3.74321C16.0003 3.7111 15.9172 3.69458 15.8333 3.69458C15.7494 3.69458 15.6664 3.7111 15.5889 3.74321C15.5114 3.77531 15.4409 3.82236 15.3816 3.88168C15.3223 3.941 15.2752 4.01142 15.2431 4.08892C15.211 4.16642 15.1945 4.24948 15.1945 4.33337C15.1945 4.41726 15.211 4.50033 15.2431 4.57783C15.2752 4.65533 15.3223 4.72575 15.3816 4.78507C16.83 6.23343 18.3256 6.25004 18.3889 6.25004C18.5567 6.24987 18.7176 6.18335 18.8366 6.06498C18.9556 5.94661 19.0229 5.786 19.0239 5.61818ZM8.61834 4.78507C8.67765 4.72575 8.72471 4.65533 8.75681 4.57783C8.78891 4.50033 8.80543 4.41726 8.80543 4.33337C8.80543 4.24948 8.78891 4.16642 8.75681 4.08892C8.72471 4.01142 8.67765 3.941 8.61834 3.88168C8.55902 3.82236 8.4886 3.77531 8.4111 3.74321C8.33359 3.7111 8.25053 3.69458 8.16664 3.69458C8.08275 3.69458 7.99969 3.7111 7.92219 3.74321C7.84468 3.77531 7.77426 3.82236 7.71495 3.88168C6.66653 4.93009 5.659 4.97098 5.6047 4.97226C5.43525 4.97311 5.27309 5.04123 5.15387 5.16165C5.03465 5.28206 4.96815 5.4449 4.969 5.61434C4.96985 5.78379 5.03797 5.94596 5.15839 6.06517C5.2788 6.18439 5.44164 6.25089 5.61109 6.25004C5.67434 6.25004 7.16997 6.23343 8.61834 4.78507Z" fill="#65471B"/>
<path d="M19.5996 10.1203C18.203 7.9315 15.7062 7.22234 14.3882 7.78264C13.6598 8.09123 13.295 9.07447 13.2784 10.7516C13.2746 11.1451 13.2899 11.5783 13.3244 12.0498C13.3449 12.3277 13.3672 12.6094 13.4004 12.9142C13.486 13.693 13.8969 14.3076 14.5881 14.6897C15.0481 14.9446 15.5982 15.0756 16.1668 15.112C17.1399 15.1733 18.171 14.9548 18.9019 14.6015C19.675 14.2284 20.1771 13.5563 20.2806 12.7577C20.3841 11.9635 20.1612 11.0014 19.5996 10.1203Z" fill="white"/>
<path d="M20.2813 12.7577C20.3842 11.9636 20.1612 11.0008 19.5996 10.1204C19.3105 9.67336 18.9597 9.26942 18.5576 8.92053C18.0127 8.63517 17.4068 8.4861 16.7917 8.48608C16.0456 8.48695 15.316 8.70535 14.6921 9.11454C14.0682 9.52372 13.5772 10.1059 13.2791 10.7899C13.2765 11.1739 13.2906 11.593 13.3245 12.0504C13.3449 12.3284 13.3673 12.6101 13.4011 12.9149C13.4867 13.6937 13.8975 14.3083 14.5888 14.6903C15.0488 14.9453 15.5989 15.0762 16.1675 15.1126C17.1405 15.174 18.1717 14.9555 18.9026 14.6022C19.6757 14.2284 20.1778 13.5569 20.2813 12.7577Z" fill="#F4900C"/>
<path d="M14.2361 11.9999C14.2361 12.6777 14.5053 13.3277 14.9846 13.8069C15.4638 14.2862 16.1139 14.5554 16.7916 14.5554C17.4694 14.5554 18.1194 14.2862 18.5987 13.8069C19.0779 13.3277 19.3472 12.6777 19.3472 11.9999C19.3472 11.3221 19.0779 10.6721 18.5987 10.1928C18.1194 9.71358 17.4694 9.44434 16.7916 9.44434C16.1139 9.44434 15.4638 9.71358 14.9846 10.1928C14.5053 10.6721 14.2361 11.3221 14.2361 11.9999Z" fill="#65471B"/>
<path d="M15.3969 10.8389C15.4743 10.9161 15.5704 10.9731 15.6798 11.0064C15.7893 11.0398 15.9099 11.0489 16.0348 11.0333C16.1596 11.0177 16.2863 10.9776 16.4077 10.9154C16.529 10.8531 16.6425 10.77 16.7417 10.6706C16.841 10.5712 16.9241 10.4576 16.9862 10.3363C17.0483 10.2149 17.0882 10.0882 17.1037 9.96326C17.1192 9.83837 17.11 9.71777 17.0765 9.60837C17.0431 9.49896 16.986 9.40288 16.9087 9.32562C16.8314 9.24835 16.7352 9.19142 16.6258 9.15806C16.5163 9.1247 16.3957 9.11557 16.2709 9.13119C16.146 9.14682 16.0193 9.18689 15.898 9.24912C15.7767 9.31135 15.6631 9.39452 15.5639 9.49388C15.4646 9.59324 15.3816 9.70685 15.3194 9.82821C15.2573 9.94958 15.2174 10.0763 15.2019 10.2012C15.1864 10.3261 15.1956 10.4467 15.2291 10.5561C15.2626 10.6655 15.3196 10.7616 15.3969 10.8389Z" fill="white"/>
<path d="M14.4343 14.9695C14.9115 15.234 15.4878 15.3893 16.1478 15.4308C16.2641 15.4378 16.381 15.4417 16.4985 15.4417C17.3879 15.4417 18.3149 15.2404 19.0419 14.8897C19.6636 14.5894 20.1268 14.1141 20.3849 13.5371C20.4234 13.4513 20.4281 13.354 20.398 13.2648C20.3679 13.1756 20.3053 13.1011 20.2226 13.0561C19.3148 12.5635 18.3564 13.9262 17.1099 13.9262C15.8628 13.9262 14.5071 13.3282 13.7519 13.9262C13.7179 13.9535 13.6897 13.9873 13.669 14.0258C13.6484 14.0642 13.6358 14.1065 13.6319 14.1499C13.628 14.1934 13.633 14.2372 13.6465 14.2787C13.66 14.3201 13.6817 14.3585 13.7104 14.3913C13.9078 14.6169 14.1487 14.8117 14.4343 14.9695Z" fill="#5DADEC"/>
<path d="M4.40044 10.1203C5.79705 7.9315 8.29383 7.22234 9.61186 7.78264C10.3402 8.09123 10.705 9.07447 10.7216 10.7516C10.7254 11.1451 10.7101 11.5783 10.6756 12.0498C10.6552 12.3277 10.6328 12.6094 10.5996 12.9142C10.514 13.693 10.1032 14.3076 9.41189 14.6897C8.95189 14.9446 8.4018 15.0756 7.83319 15.112C6.86016 15.1733 5.829 14.9548 5.09811 14.6015C4.32505 14.2284 3.82289 13.5563 3.71939 12.7577C3.61589 11.9635 3.83886 11.0014 4.40044 10.1203Z" fill="white"/>
<path d="M10.5996 12.915C10.514 13.6938 10.1032 14.3084 9.41187 14.6904C8.95187 14.9453 8.40179 15.0763 7.83318 15.1127C6.86015 15.1741 5.82898 14.9556 5.09809 14.6023C4.32504 14.2291 3.82287 13.557 3.71937 12.7584C3.61651 11.9643 3.83948 11.0015 4.40107 10.1211C4.69019 9.67409 5.041 9.27016 5.44309 8.92126C5.98798 8.6359 6.5939 8.48683 7.20898 8.48682C7.95508 8.48768 8.68474 8.70608 9.30862 9.11527C9.9325 9.52446 10.4235 10.1067 10.7216 10.7906C10.7241 11.1746 10.7101 11.5937 10.6762 12.0512C10.6554 12.3395 10.6299 12.6275 10.5996 12.915Z" fill="#F4900C"/>
<path d="M4.65283 11.9999C4.65283 12.6777 4.92208 13.3277 5.40134 13.8069C5.8806 14.2862 6.53061 14.5554 7.20839 14.5554C7.88616 14.5554 8.53618 14.2862 9.01544 13.8069C9.4947 13.3277 9.76394 12.6777 9.76394 11.9999C9.76394 11.3221 9.4947 10.6721 9.01544 10.1928C8.53618 9.71358 7.88616 9.44434 7.20839 9.44434C6.53061 9.44434 5.8806 9.71358 5.40134 10.1928C4.92208 10.6721 4.65283 11.3221 4.65283 11.9999Z" fill="#65471B"/>
<path d="M7.49844 10.0833C7.36875 10.6123 6.84741 11.0417 6.33439 11.0417C5.82136 11.0417 5.51086 10.6123 5.64055 10.0833C5.77025 9.55433 6.29158 9.125 6.80461 9.125C7.31764 9.125 7.62814 9.55433 7.49844 10.0833Z" fill="white"/>
<path d="M9.56582 14.9695C9.08857 15.234 8.51229 15.3893 7.85232 15.4308C7.73554 15.438 7.61857 15.4416 7.50157 15.4417C6.61224 15.4417 5.68521 15.2404 4.95816 14.8897C4.33652 14.5894 3.87332 14.1141 3.61521 13.5371C3.57671 13.4513 3.57204 13.354 3.60212 13.2648C3.63221 13.1756 3.69483 13.1011 3.77749 13.0561C4.68535 12.5635 5.64368 13.9262 6.89016 13.9262C8.13727 13.9262 9.49299 13.3282 10.2482 13.9262C10.2822 13.9535 10.3104 13.9873 10.3311 14.0258C10.3517 14.0642 10.3643 14.1065 10.3682 14.1499C10.3721 14.1934 10.3671 14.2372 10.3536 14.2787C10.3401 14.3201 10.3184 14.3585 10.2897 14.3913C10.0839 14.6248 9.83897 14.8205 9.56582 14.9695Z" fill="#5DADEC"/>
</g>
<defs>
<clipPath id="clip0_2127_2221">
<rect width="24" height="24" fill="white"/>
</clipPath>
</defs>
</svg>
