<svg width="16" height="16" viewBox="0 0 16 16" fill="none" xmlns="http://www.w3.org/2000/svg">
<path d="M12.32 8C12.32 8.2651 12.1051 8.48 11.84 8.48L4.16003 8.48C3.89493 8.48 3.68003 8.2651 3.68003 8C3.68003 7.7349 3.89493 7.52 4.16003 7.52L11.84 7.52C12.1051 7.52 12.32 7.7349 12.32 8ZM14.24 4.64L1.76003 4.64C1.49493 4.64 1.28003 4.8549 1.28003 5.12C1.28003 5.3851 1.49493 5.6 1.76003 5.6L14.24 5.6C14.5051 5.6 14.72 5.3851 14.72 5.12C14.72 4.8549 14.5051 4.64 14.24 4.64ZM9.44003 10.4H6.56003C6.29493 10.4 6.08003 10.6149 6.08003 10.88C6.08003 11.1451 6.29493 11.36 6.56003 11.36H9.44003C9.70513 11.36 9.92003 11.1451 9.92003 10.88C9.92003 10.6149 9.70513 10.4 9.44003 10.4Z" fill="#323743"/>
</svg>
