<svg width="16" height="16" viewBox="0 0 16 16" fill="none" xmlns="http://www.w3.org/2000/svg">
<g clip-path="url(#clip0_2126_1096)">
<path d="M8.00005 1.29993C4.30165 1.29993 1.30005 4.30153 1.30005 7.99993C1.30005 11.6983 4.30165 14.6999 8.00005 14.6999C11.6984 14.6999 14.7 11.6983 14.7 7.99993C14.7 4.30153 11.6984 1.29993 8.00005 1.29993ZM8.00005 13.3599C5.04535 13.3599 2.64005 10.9546 2.64005 7.99993C2.64005 5.04523 5.04535 2.63993 8.00005 2.63993C10.9547 2.63993 13.36 5.04523 13.36 7.99993C13.36 10.9546 10.9547 13.3599 8.00005 13.3599Z" fill="#9095A1"/>
<path d="M10.0101 5.98502L9.34007 4.64502L5.32007 4.64502L5.32007 12.015H6.32507L6.32507 8.66502H8.00007L8.67007 10.005L12.0201 10.005V5.98502L10.0101 5.98502ZM11.0151 9.00002L9.29317 9.00002L8.62317 7.66002L6.32507 7.66002L6.32507 5.65002L8.71697 5.65002L9.38697 6.99002L11.0151 6.99002V9.00002Z" fill="#9095A1"/>
</g>
<defs>
<clipPath id="clip0_2126_1096">
<rect width="16" height="16" fill="white"/>
</clipPath>
</defs>
</svg>
