<svg width="17" height="16" viewBox="0 0 17 16" fill="none" xmlns="http://www.w3.org/2000/svg">
<path d="M14.9001 7.99996C14.8995 4.59548 12.2338 1.78729 8.83394 1.60968C5.43409 1.43207 2.49026 3.94722 2.135 7.33311C1.77973 10.719 4.13739 13.7904 7.50006 14.3224L7.50006 9.84996H5.87525V7.99996L7.50006 7.99996L7.50006 6.58996C7.50006 4.98596 8.45565 4.09996 9.91725 4.09996C10.3973 4.10662 10.8761 4.14833 11.3501 4.22476V5.79996H10.5429C10.2642 5.76295 9.98388 5.85468 9.78101 6.04922C9.57814 6.24377 9.47475 6.52002 9.50006 6.79996V7.99996L11.2753 7.99996L10.9913 9.84996H9.50006L9.50006 14.3224C12.6103 13.8303 14.9006 11.1489 14.9001 7.99996Z" fill="#335CA6"/>
</svg>
