<svg width="16" height="16" viewBox="0 0 16 16" fill="none" xmlns="http://www.w3.org/2000/svg">
<path d="M9.69997 14.28L1.71997 14.28L1.71997 11.8216C1.71997 11.1302 2.13322 10.5066 2.77219 10.2415C3.41914 9.97362 4.38187 9.71997 5.70997 9.71997C7.03807 9.71997 8.0008 9.97362 8.64775 10.2421C9.28672 10.5066 9.69997 11.1302 9.69997 11.8216V14.28Z" stroke="#9095A1" stroke-width="1.368" stroke-miterlimit="10" stroke-linecap="round"/>
<path d="M5.70993 7.98993C6.96914 7.98993 7.98993 6.96914 7.98993 5.70993C7.98993 4.45072 6.96914 3.42993 5.70993 3.42993C4.45072 3.42993 3.42993 4.45072 3.42993 5.70993C3.42993 6.96914 4.45072 7.98993 5.70993 7.98993Z" stroke="#9095A1" stroke-width="1.368" stroke-miterlimit="10" stroke-linecap="square"/>
<path d="M14.275 7.90644C14.275 7.56216 14.124 7.23441 13.8544 7.02066C13.4422 6.69348 12.7275 6.28992 11.71 6.28992C10.6926 6.28992 9.97779 6.69348 9.56568 7.02066C9.29607 7.23441 9.14502 7.56216 9.14502 7.90644V8.56992L14.275 8.56992V7.90644Z" stroke="#9095A1" stroke-width="1.368" stroke-miterlimit="10" stroke-linecap="round"/>
<path d="M11.7099 4.56497C12.4969 4.56497 13.1349 3.92697 13.1349 3.13997C13.1349 2.35296 12.4969 1.71497 11.7099 1.71497C10.9229 1.71497 10.2849 2.35296 10.2849 3.13997C10.2849 3.92697 10.9229 4.56497 11.7099 4.56497Z" stroke="#9095A1" stroke-width="1.368" stroke-miterlimit="10" stroke-linecap="square"/>
</svg>
