<svg width="16" height="16" viewBox="0 0 16 16" fill="none" xmlns="http://www.w3.org/2000/svg">
<g clip-path="url(#clip0_2126_1089)">
<path d="M7.33006 3.98001H5.99006V2.64001L7.33006 2.64001V3.98001ZM10.0101 2.64001L8.67006 2.64001V3.98001L10.0101 3.98001V2.64001ZM5.99006 9.34001H7.33006L7.33006 8.00001H5.99006V9.34001ZM12.6901 6.66001L12.6901 5.32001H11.3501L11.3501 6.66001L12.6901 6.66001ZM12.6901 9.34001V8.00001L11.3501 8.00001V9.34001L12.6901 9.34001ZM8.67006 9.34001L10.0101 9.34001L10.0101 8.00001L8.67006 8.00001L8.67006 9.34001ZM12.6901 2.64001L11.3501 2.64001V3.98001L12.6901 3.98001V2.64001ZM8.67006 5.32001V3.98001L7.33006 3.98001L7.33006 5.32001L8.67006 5.32001ZM4.65006 6.66001V5.32001H5.99006V3.98001L4.65006 3.98001V2.64001L3.31006 2.64001L3.31006 13.36H4.65006L4.65006 8.00001H5.99006L5.99006 6.66001L4.65006 6.66001ZM10.0101 8.00001H11.3501V6.66001H10.0101V8.00001ZM7.33006 6.66001V8.00001H8.67006V6.66001H7.33006ZM5.99006 5.32001L5.99006 6.66001H7.33006V5.32001L5.99006 5.32001ZM8.67006 6.66001L10.0101 6.66001V5.32001H8.67006V6.66001ZM10.0101 3.98001V5.32001H11.3501V3.98001H10.0101Z" fill="#9095A1"/>
</g>
<defs>
<clipPath id="clip0_2126_1089">
<rect width="16" height="16" fill="white"/>
</clipPath>
</defs>
</svg>
